# xmcd CD database file
#
# Track frame offsets:
#	150
#	17162
#	35414
#	50571
#	70120
#	87910
#	97651
#	116343
#	128167
#	150411
#	165654
#
# Disc length: 2392 seconds
#
# Revision: 0
# Processed by: cddbd v1.5.2PL0 Copyright (c) Steve Scherf et al.
# Submitted via: CDex 1.51
#
DISCID=7c09560b
DTITLE=Chicken Shack - That's The Way We Are
DYEAR=1978
DGENRE=Blues
TTITLE0=The End
TTITLE1=High Cost Of Love
TTITLE2=Doesn't Matter About Your Size
TTITLE3=It Wasn't Me
TTITLE4=You'll Be Mine
TTITLE5=Sillyness
TTITLE6=Little Bird
TTITLE7=Rich Man's Blues
TTITLE8=Emily
TTITLE9=Let Me Love
TTITLE10=Shake Your Money Maker
EXTD=YEAR: 1978
EXTT0=
EXTT1=
EXTT2=
EXTT3=
EXTT4=
EXTT5=
EXTT6=
EXTT7=
EXTT8=
EXTT9=
EXTT10=
PLAYORDER=
